<mxfile host="app.diagrams.net" modified="2023-12-23T14:19:48.348Z" agent="Mozilla/5.0 (Macintosh; Intel Mac OS X 10_15_7) AppleWebKit/537.36 (KHTML, like Gecko) Chrome/119.0.0.0 Safari/537.36" version="22.1.11" etag="ATGu0HYoGyTlLOP31neV" type="github">
  <diagram name="Страница — 1" id="2l6iLWMnc3qJs8vAaMcJ">
    <mxGraphModel>
      <root>
        <mxCell id="0" />
        <mxCell id="1" parent="0" />
      </root>
    </mxGraphModel>
  </diagram>
</mxfile>
